<svg width="100" height="76" viewBox="0 0 100 76" fill="none" xmlns="http://www.w3.org/2000/svg">
<path d="M92.352 20.453H64.762V7.13303C64.762 3.19553 61.555 -0.00756836 57.6136 -0.00756836H7.64864C3.70724 -0.00756836 0.500244 3.19553 0.500244 7.13303V35.563C0.500244 39.5044 3.70724 42.7114 7.64864 42.7114H17.0002L15.6447 52.563C15.4885 53.7075 16.0822 54.8091 17.1369 55.3013C17.4924 55.4654 17.8713 55.5474 18.2463 55.5474C18.969 55.5474 19.676 55.2466 20.1877 54.6841L31.0037 42.7111H35.2459V56.0231C35.2459 59.9645 38.449 63.1715 42.3865 63.1715H69.0035L79.8195 75.1445C80.3313 75.707 81.0384 76.0078 81.757 76.0078C82.132 76.0078 82.511 75.9258 82.8664 75.7617C83.9212 75.2735 84.5227 74.1758 84.3625 73.0234L82.9992 63.1718H92.3508C96.2922 63.1718 99.4992 59.9648 99.4992 56.0234V27.5974C99.4992 23.656 96.2922 20.4529 92.3508 20.4529L92.352 20.453ZM30.793 39.617C30.0313 39.617 29.336 39.9295 28.8477 40.4842L18.9141 51.4762L20.1368 42.5973C20.2384 41.8512 20.0275 41.1168 19.5353 40.5348C19.5275 40.527 19.5197 40.5153 19.5118 40.5075C19.004 39.9372 18.3048 39.6208 17.543 39.6208L7.64855 39.6169C5.41025 39.6169 3.59385 37.7966 3.59385 35.5621L3.58994 7.13215C3.58994 4.89775 5.41024 3.08135 7.64464 3.08135H57.6096C59.844 3.08135 61.6643 4.89775 61.6643 7.13215V35.5621C61.6643 37.7966 59.844 39.6169 57.6096 39.6169L30.7936 39.6208L30.793 39.617ZM96.41 56.023C96.41 58.2613 94.5897 60.0777 92.3553 60.0777H82.4686C81.6952 60.0777 80.992 60.398 80.4881 60.9801C79.9842 61.5621 79.7616 62.3004 79.8671 63.0582L81.0937 71.9449L71.1562 60.9449C70.6523 60.3863 69.9609 60.0816 69.2109 60.0816H42.3869C40.1525 60.0816 38.3361 58.2613 38.3361 56.0269V42.7109H57.6131C61.2811 42.7109 64.3084 39.9336 64.7147 36.375H85.4957C86.3511 36.375 87.0426 35.6836 87.0426 34.8281C87.0426 33.9726 86.3512 33.2812 85.4957 33.2812H64.7617V23.5429H92.3557C94.594 23.5429 96.4104 25.3632 96.4104 27.5976L96.41 56.023ZM87.0389 48.7964C87.0389 49.6519 86.3475 50.3433 85.492 50.3433L64.402 50.3394C63.5466 50.3394 62.8551 49.648 62.8551 48.7925C62.8551 47.937 63.5466 47.2456 64.402 47.2456H85.492C86.3475 47.2495 87.0389 47.9409 87.0389 48.7964ZM41.1169 36.1324C44.5388 36.1324 47.4411 33.816 47.8981 30.7066L49.2458 21.5308C49.4099 20.4097 49.2341 19.2964 48.738 18.3003C47.9958 16.8315 46.57 15.937 44.9255 15.9136L38.4216 15.8238C37.781 15.816 37.2732 15.3472 37.2107 14.7105L36.8553 11.0503C36.5662 8.06979 33.9022 5.87449 30.9178 6.15969C30.0545 6.24172 29.2772 6.65578 28.7264 7.32769C28.1795 7.99175 27.9256 8.82769 28.0115 9.67929C28.0232 9.78085 28.0428 9.87851 28.0701 9.97616C28.5584 11.566 28.7771 13.277 28.7264 15.0426C28.7146 15.4019 28.5975 15.6597 28.3514 15.9019L26.7694 17.4331C26.7225 17.4761 26.6756 17.5191 26.6326 17.5581C26.2225 16.73 25.367 16.1558 24.3826 16.1558H18.4685C17.0779 16.1558 15.949 17.2886 15.949 18.6753V34.0423C15.949 35.4329 17.0818 36.5618 18.4685 36.5618H24.3826C25.5154 36.5618 26.4724 35.8079 26.7888 34.7766C26.8748 34.8001 26.9646 34.8235 27.0545 34.8548L29.5584 35.6673C30.2107 35.8743 30.8201 35.9759 31.4725 35.9798L40.9998 36.1282C41.0427 36.1321 41.0818 36.1324 41.1169 36.1324ZM23.8119 33.4762H19.0424V19.2462H23.8119V33.4762ZM30.5111 32.7262L28.0189 31.9137C27.6361 31.7887 27.2729 31.7028 26.9056 31.652L26.9017 20.882C27.6556 20.6437 28.3314 20.2336 28.929 19.6476L30.5149 18.1124C31.3274 17.3155 31.7805 16.2921 31.8235 15.1397C31.8821 13.1124 31.6399 11.1514 31.1048 9.30771C31.1087 9.2999 31.1126 9.29209 31.1204 9.28427C31.136 9.26474 31.1673 9.2374 31.2142 9.23349C32.5033 9.1124 33.6556 10.0577 33.7845 11.3468L34.1399 15.007C34.3509 17.2101 36.179 18.8898 38.386 18.9132L44.8821 19.003C45.3743 19.0108 45.7571 19.2491 45.9798 19.6905C46.1908 20.1085 46.2611 20.589 46.1908 21.0811L44.8431 30.2569C44.5814 32.0303 42.7142 33.0616 41.054 33.0421L31.5188 32.8937C31.1594 32.8898 30.8627 32.8395 30.5111 32.7262Z" fill="black"/>
</svg>
