<svg width="37" height="38" viewBox="0 0 37 38" fill="none" xmlns="http://www.w3.org/2000/svg">
<path d="M23.5926 21.2084H25.2126C25.6554 21.2079 26.0798 21.0318 26.3929 20.7188C26.7059 20.4057 26.882 19.9813 26.8826 19.5385V17.9366C26.882 17.4938 26.7059 17.0694 26.3929 16.7563C26.0798 16.4433 25.6554 16.2672 25.2126 16.2667H23.5926C23.1499 16.2672 22.7255 16.4433 22.4124 16.7563C22.0993 17.0694 21.9232 17.4938 21.9227 17.9366V19.5385C21.9232 19.9813 22.0993 20.4057 22.4124 20.7188C22.7255 21.0318 23.1499 21.2079 23.5926 21.2084ZM23.036 17.9366C23.0362 17.789 23.0949 17.6475 23.1992 17.5432C23.3036 17.4388 23.4451 17.3801 23.5926 17.3799H25.2126C25.3602 17.3801 25.5017 17.4388 25.6061 17.5432C25.7104 17.6475 25.7691 17.789 25.7693 17.9366V19.5385C25.7691 19.6861 25.7104 19.8276 25.6061 19.9319C25.5017 20.0363 25.3602 20.095 25.2126 20.0952H23.5926C23.4451 20.095 23.3036 20.0363 23.1992 19.9319C23.0949 19.8276 23.0362 19.6861 23.036 19.5385V17.9366ZM29.7745 35.0185H31.3945C31.8373 35.018 32.2617 34.8419 32.5748 34.5288C32.8878 34.2158 33.0639 33.7913 33.0645 33.3486V31.7466C33.0639 31.3039 32.8878 30.8794 32.5748 30.5664C32.2617 30.2533 31.8373 30.0772 31.3945 30.0767H29.7745C29.3318 30.0772 28.9074 30.2533 28.5943 30.5664C28.2812 30.8794 28.1051 31.3039 28.1046 31.7466V33.3486C28.1051 33.7913 28.2812 34.2158 28.5943 34.5288C28.9074 34.8419 29.3318 35.018 29.7745 35.0185ZM29.2179 31.7466C29.2181 31.5991 29.2768 31.4576 29.3811 31.3532C29.4855 31.2489 29.627 31.1902 29.7745 31.19H31.3945C31.5421 31.1902 31.6836 31.2489 31.788 31.3532C31.8923 31.4576 31.951 31.5991 31.9512 31.7466V33.3486C31.951 33.4961 31.8923 33.6376 31.788 33.742C31.6836 33.8464 31.5421 33.905 31.3945 33.9052H29.7745C29.627 33.905 29.4855 33.8464 29.3811 33.742C29.2768 33.6376 29.2181 33.4961 29.2179 33.3486L29.2179 31.7466ZM26.6649 23.2921C26.5413 23.2113 26.3907 23.1829 26.2462 23.2132C26.1017 23.2434 25.9752 23.3298 25.8944 23.4533L23.8049 26.6485L22.8921 25.6395C22.7931 25.5301 22.6546 25.4644 22.5072 25.457C22.3598 25.4497 22.2154 25.5011 22.106 25.6002C21.9965 25.6992 21.9308 25.8377 21.9235 25.9851C21.9161 26.1326 21.9676 26.2769 22.0666 26.3864L23.4633 27.9302C23.5154 27.9879 23.5791 28.034 23.6502 28.0656C23.7213 28.0971 23.7982 28.1135 23.876 28.1135C23.8905 28.1135 23.905 28.1129 23.9195 28.1118C24.0043 28.1051 24.0865 28.0791 24.1598 28.0357C24.233 27.9923 24.2953 27.9327 24.3419 27.8615L26.8262 24.0626C26.9069 23.939 26.9353 23.7884 26.9051 23.6439C26.8749 23.4994 26.7885 23.3729 26.6649 23.2921ZM29.7745 21.2084H31.3945C31.8373 21.2079 32.2617 21.0318 32.5748 20.7188C32.8878 20.4057 33.0639 19.9813 33.0645 19.5385V17.9366C33.0639 17.4938 32.8878 17.0694 32.5748 16.7563C32.2617 16.4433 31.8373 16.2672 31.3945 16.2667H29.7745C29.3318 16.2672 28.9074 16.4433 28.5943 16.7563C28.2812 17.0694 28.1051 17.4938 28.1046 17.9366V19.5385C28.1051 19.9813 28.2812 20.4057 28.5943 20.7188C28.9074 21.0318 29.3318 21.2079 29.7745 21.2084ZM29.2179 17.9366C29.2181 17.789 29.2768 17.6475 29.3811 17.5432C29.4855 17.4388 29.627 17.3801 29.7745 17.3799H31.3945C31.5421 17.3801 31.6836 17.4388 31.788 17.5432C31.8923 17.6475 31.951 17.789 31.9512 17.9366V19.5385C31.951 19.6861 31.8923 19.8276 31.788 19.9319C31.6836 20.0363 31.5421 20.095 31.3945 20.0952H29.7745C29.627 20.095 29.4855 20.0363 29.3811 19.9319C29.2768 19.8276 29.2181 19.6861 29.2179 19.5385V17.9366ZM29.7745 28.1135H31.3945C31.8373 28.113 32.2617 27.9369 32.5748 27.6238C32.8878 27.3107 33.0639 26.8863 33.0645 26.4435V24.8416C33.0639 24.3989 32.8878 23.9744 32.5748 23.6614C32.2617 23.3483 31.8373 23.1722 31.3945 23.1717H29.7745C29.3318 23.1722 28.9074 23.3483 28.5943 23.6614C28.2812 23.9744 28.1051 24.3989 28.1046 24.8416V26.4435C28.1051 26.8863 28.2812 27.3107 28.5943 27.6238C28.9074 27.9369 29.3318 28.113 29.7745 28.1135ZM29.2179 24.8416C29.2181 24.694 29.2768 24.5525 29.3811 24.4482C29.4855 24.3438 29.627 24.2851 29.7745 24.285H31.3945C31.5421 24.2851 31.6836 24.3438 31.788 24.4482C31.8923 24.5525 31.951 24.694 31.9512 24.8416V26.4435C31.951 26.5911 31.8923 26.7326 31.788 26.837C31.6836 26.9413 31.5421 27 31.3945 27.0002H29.7745C29.627 27 29.4855 26.9413 29.3811 26.837C29.2768 26.7326 29.2181 26.5911 29.2179 26.4435V24.8416ZM17.4107 35.0185H19.0307C19.4734 35.018 19.8979 34.8419 20.2109 34.5288C20.524 34.2158 20.7001 33.7913 20.7006 33.3486V31.7466C20.7001 31.3039 20.524 30.8794 20.2109 30.5664C19.8979 30.2533 19.4734 30.0772 19.0307 30.0767H17.4107C16.968 30.0772 16.5436 30.2533 16.2305 30.5664C15.9174 30.8794 15.7413 31.3039 15.7408 31.7466V33.3486C15.7413 33.7913 15.9174 34.2158 16.2305 34.5288C16.5436 34.8419 16.968 35.018 17.4107 35.0185ZM16.8541 31.7466C16.8543 31.5991 16.913 31.4576 17.0173 31.3532C17.1217 31.2489 17.2632 31.1902 17.4107 31.19H19.0307C19.1782 31.1902 19.3197 31.2489 19.4241 31.3532C19.5284 31.4576 19.5871 31.5991 19.5873 31.7466V33.3486C19.5871 33.4962 19.5284 33.6376 19.4241 33.742C19.3197 33.8464 19.1782 33.9051 19.0307 33.9052H17.4107C17.2632 33.9051 17.1217 33.8464 17.0173 33.742C16.913 33.6376 16.8543 33.4962 16.8541 33.3486V31.7466ZM5.04688 28.1135H6.66686C7.10959 28.113 7.53405 27.9369 7.84711 27.6238C8.16017 27.3107 8.33627 26.8863 8.33678 26.4435V24.8416C8.33627 24.3989 8.16017 23.9744 7.84711 23.6614C7.53405 23.3483 7.10959 23.1722 6.66686 23.1717H5.04688C4.60414 23.1722 4.17968 23.3483 3.86662 23.6614C3.55356 23.9744 3.37746 24.3989 3.37695 24.8416V26.4435C3.37746 26.8863 3.55356 27.3107 3.86662 27.6238C4.17968 27.9369 4.60414 28.113 5.04688 28.1135ZM4.49023 24.8416C4.4904 24.694 4.54909 24.5525 4.65345 24.4482C4.7578 24.3438 4.89929 24.2851 5.04688 24.285H6.66686C6.81444 24.2851 6.95593 24.3438 7.06029 24.4482C7.16464 24.5525 7.22334 24.694 7.2235 24.8416V26.4435C7.22334 26.5911 7.16464 26.7326 7.06029 26.837C6.95593 26.9413 6.81444 27 6.66686 27.0002H5.04688C4.89929 27 4.7578 26.9413 4.65345 26.837C4.54909 26.7326 4.4904 26.5911 4.49023 26.4435V24.8416ZM5.04688 21.2084H6.66686C7.10959 21.2079 7.53405 21.0318 7.84711 20.7188C8.16017 20.4057 8.33627 19.9813 8.33678 19.5385V17.9366C8.33627 17.4938 8.16017 17.0694 7.84711 16.7563C7.53405 16.4433 7.10959 16.2672 6.66686 16.2667H5.04688C4.60414 16.2672 4.17968 16.4433 3.86662 16.7563C3.55356 17.0694 3.37746 17.4938 3.37695 17.9366V19.5385C3.37746 19.9813 3.55356 20.4057 3.86662 20.7188C4.17968 21.0318 4.60414 21.2079 5.04688 21.2084ZM4.49023 17.9366C4.4904 17.789 4.54909 17.6475 4.65345 17.5432C4.7578 17.4388 4.89929 17.3801 5.04688 17.3799H6.66686C6.81444 17.3801 6.95593 17.4388 7.06029 17.5432C7.16464 17.6475 7.22334 17.789 7.2235 17.9366V19.5385C7.22334 19.6861 7.16464 19.8276 7.06029 19.9319C6.95593 20.0363 6.81444 20.095 6.66686 20.0952H5.04688C4.89929 20.095 4.7578 20.0363 4.65345 19.9319C4.54909 19.8276 4.4904 19.6861 4.49023 19.5385V17.9366ZM5.04688 35.0185H6.66686C7.10959 35.018 7.53405 34.8419 7.84711 34.5288C8.16017 34.2158 8.33627 33.7913 8.33678 33.3486V31.7466C8.33627 31.3039 8.16017 30.8794 7.84711 30.5664C7.53405 30.2533 7.10959 30.0772 6.66686 30.0767H5.04688C4.60414 30.0772 4.17968 30.2533 3.86662 30.5664C3.55356 30.8794 3.37746 31.3039 3.37695 31.7466V33.3486C3.37746 33.7913 3.55356 34.2158 3.86662 34.5288C4.17968 34.8419 4.60414 35.018 5.04688 35.0185ZM4.49023 31.7466C4.4904 31.5991 4.54909 31.4576 4.65345 31.3532C4.7578 31.2488 4.89929 31.1902 5.04688 31.19H6.66686C6.81444 31.1902 6.95593 31.2488 7.06029 31.3532C7.16464 31.4576 7.22334 31.5991 7.2235 31.7466V33.3486C7.22334 33.4961 7.16464 33.6376 7.06029 33.742C6.95593 33.8464 6.81444 33.905 6.66686 33.9052H5.04688C4.89929 33.905 4.7578 33.8464 4.65345 33.742C4.54909 33.6376 4.4904 33.4961 4.49023 33.3486V31.7466ZM23.5926 35.0185H25.2126C25.6554 35.018 26.0798 34.8419 26.3929 34.5288C26.7059 34.2158 26.882 33.7913 26.8826 33.3486V31.7466C26.882 31.3039 26.7059 30.8794 26.3929 30.5664C26.0798 30.2533 25.6554 30.0772 25.2126 30.0767H23.5926C23.1499 30.0772 22.7255 30.2533 22.4124 30.5664C22.0993 30.8794 21.9232 31.3039 21.9227 31.7466V33.3486C21.9232 33.7913 22.0993 34.2158 22.4124 34.5288C22.7255 34.8419 23.1499 35.018 23.5926 35.0185ZM23.036 31.7466C23.0362 31.5991 23.0949 31.4576 23.1992 31.3532C23.3036 31.2488 23.4451 31.1902 23.5926 31.19H25.2126C25.3602 31.1902 25.5017 31.2488 25.6061 31.3532C25.7104 31.4576 25.7691 31.5991 25.7693 31.7466V33.3486C25.7691 33.4961 25.7104 33.6376 25.6061 33.742C25.5017 33.8464 25.3602 33.905 25.2126 33.9052H23.5926C23.4451 33.905 23.3036 33.8464 23.1992 33.742C23.0949 33.6376 23.0362 33.4961 23.036 33.3486V31.7466ZM11.2288 35.0185H12.8488C13.2915 35.018 13.716 34.8419 14.029 34.5288C14.3421 34.2158 14.5182 33.7913 14.5187 33.3486V31.7466C14.5182 31.3039 14.3421 30.8794 14.029 30.5664C13.716 30.2533 13.2915 30.0772 12.8488 30.0767H11.2288C10.786 30.0772 10.3616 30.2533 10.0485 30.5664C9.73546 30.8794 9.55936 31.3039 9.55886 31.7466V33.3486C9.55936 33.7913 9.73546 34.2158 10.0485 34.5288C10.3616 34.8419 10.786 35.018 11.2288 35.0185ZM10.6721 31.7466C10.6723 31.5991 10.731 31.4576 10.8354 31.3532C10.9397 31.2489 11.0812 31.1902 11.2288 31.19H12.8488C12.9963 31.1902 13.1378 31.2489 13.2422 31.3532C13.3465 31.4576 13.4052 31.5991 13.4054 31.7466V33.3486C13.4052 33.4962 13.3465 33.6376 13.2422 33.742C13.1378 33.8464 12.9963 33.9051 12.8488 33.9052H11.2288C11.0812 33.9051 10.9397 33.8464 10.8354 33.742C10.731 33.6376 10.6723 33.4962 10.6721 33.3486V31.7466ZM32.916 3.93359H32.5078V2.59766C32.5078 1.90872 32.2341 1.24799 31.747 0.760836C31.2598 0.273681 30.5991 0 29.9102 0C29.2212 0 28.5605 0.273681 28.0733 0.760836C27.5862 1.24799 27.3125 1.90872 27.3125 2.59766V3.93359H9.12891V2.59766C9.12891 1.90872 8.85522 1.24799 8.36807 0.760836C7.88091 0.273681 7.22019 3.87081e-08 6.53125 3.87081e-08C5.84231 3.87081e-08 5.18158 0.273681 4.69443 0.760836C4.20727 1.24799 3.93359 1.90872 3.93359 2.59766V3.93359H3.52539C2.59072 3.93465 1.69464 4.30642 1.03373 4.96733C0.372825 5.62824 0.00106076 6.52432 0 7.45898V34.4746C0.00106076 35.4093 0.372825 36.3054 1.03373 36.9663C1.69464 37.6272 2.59072 37.9989 3.52539 38H32.916C33.8507 37.9989 34.7468 37.6272 35.4077 36.9663C36.0686 36.3054 36.4403 35.4093 36.4414 34.4746V7.45898C36.4403 6.52432 36.0686 5.62824 35.4077 4.96733C34.7468 4.30642 33.8507 3.93465 32.916 3.93359ZM28.4258 2.59766C28.4258 2.20398 28.5822 1.82642 28.8605 1.54804C29.1389 1.26967 29.5165 1.11328 29.9102 1.11328C30.3038 1.11328 30.6814 1.26967 30.9598 1.54804C31.2381 1.82642 31.3945 2.20398 31.3945 2.59766V7.86719C31.3945 8.26087 31.2381 8.63842 30.9598 8.9168C30.6814 9.19517 30.3038 9.35156 29.9102 9.35156C29.5165 9.35156 29.1389 9.19517 28.8605 8.9168C28.5822 8.63842 28.4258 8.26087 28.4258 7.86719V2.59766ZM5.04688 2.59766C5.04688 2.20398 5.20326 1.82642 5.48164 1.54804C5.76001 1.26967 6.13757 1.11328 6.53125 1.11328C6.92493 1.11328 7.30249 1.26967 7.58086 1.54804C7.85924 1.82642 8.01562 2.20398 8.01562 2.59766V7.86719C8.01562 8.26087 7.85924 8.63842 7.58086 8.9168C7.30249 9.19517 6.92493 9.35156 6.53125 9.35156C6.13757 9.35156 5.76001 9.19517 5.48164 8.9168C5.20326 8.63842 5.04688 8.26087 5.04688 7.86719V2.59766ZM35.3281 34.4746C35.3274 35.1141 35.073 35.7272 34.6208 36.1794C34.1686 36.6316 33.5555 36.886 32.916 36.8867H3.52539C2.88588 36.886 2.27276 36.6316 1.82056 36.1794C1.36836 35.7272 1.114 35.1141 1.11328 34.4746V14.3984H35.3281V34.4746ZM35.3281 13.2852H1.11328V7.45898C1.114 6.81947 1.36836 6.20636 1.82056 5.75415C2.27276 5.30195 2.88588 5.04759 3.52539 5.04688H3.93359V7.86719C3.93359 8.55613 4.20727 9.21685 4.69443 9.70401C5.18158 10.1912 5.84231 10.4648 6.53125 10.4648C7.22019 10.4648 7.88091 10.1912 8.36807 9.70401C8.85522 9.21685 9.12891 8.55613 9.12891 7.86719V5.04688H27.3125V7.86719C27.3125 8.55613 27.5862 9.21685 28.0733 9.70401C28.5605 10.1912 29.2212 10.4648 29.9102 10.4648C30.5991 10.4648 31.2598 10.1912 31.747 9.70401C32.2341 9.21685 32.5078 8.55613 32.5078 7.86719V5.04688H32.916C33.5555 5.04759 34.1686 5.30195 34.6208 5.75415C35.073 6.20636 35.3274 6.81947 35.3281 7.45898V13.2852ZM11.2288 28.1135H12.8488C13.2915 28.113 13.716 27.9369 14.029 27.6238C14.3421 27.3107 14.5182 26.8863 14.5187 26.4435V24.8416C14.5182 24.3989 14.3421 23.9744 14.029 23.6614C13.716 23.3483 13.2915 23.1722 12.8488 23.1717H11.2288C10.786 23.1722 10.3616 23.3483 10.0485 23.6614C9.73546 23.9744 9.55936 24.3989 9.55886 24.8416V26.4435C9.55936 26.8863 9.73546 27.3107 10.0485 27.6238C10.3616 27.9369 10.786 28.113 11.2288 28.1135ZM10.6721 24.8416C10.6723 24.694 10.731 24.5525 10.8354 24.4482C10.9397 24.3438 11.0812 24.2851 11.2288 24.285H12.8488C12.9963 24.2851 13.1378 24.3438 13.2422 24.4482C13.3465 24.5525 13.4052 24.694 13.4054 24.8416V26.4435C13.4052 26.5911 13.3465 26.7326 13.2422 26.837C13.1378 26.9413 12.9963 27 12.8488 27.0002H11.2288C11.0812 27 10.9397 26.9413 10.8354 26.837C10.731 26.7326 10.6723 26.5911 10.6721 26.4435V24.8416ZM17.4107 21.2084H19.0307C19.4734 21.2079 19.8979 21.0318 20.2109 20.7188C20.524 20.4057 20.7001 19.9813 20.7006 19.5385V17.9366C20.7001 17.4938 20.524 17.0694 20.2109 16.7563C19.8979 16.4433 19.4734 16.2672 19.0307 16.2667H17.4107C16.968 16.2672 16.5436 16.4433 16.2305 16.7563C15.9174 17.0694 15.7413 17.4938 15.7408 17.9366V19.5385C15.7413 19.9813 15.9174 20.4057 16.2305 20.7188C16.5436 21.0318 16.968 21.2079 17.4107 21.2084ZM16.8541 17.9366C16.8543 17.789 16.913 17.6475 17.0173 17.5432C17.1217 17.4388 17.2632 17.3801 17.4107 17.3799H19.0307C19.1782 17.3801 19.3197 17.4388 19.4241 17.5432C19.5284 17.6475 19.5871 17.789 19.5873 17.9366V19.5385C19.5871 19.6861 19.5284 19.8276 19.4241 19.9319C19.3197 20.0363 19.1782 20.095 19.0307 20.0952H17.4107C17.2632 20.095 17.1217 20.0363 17.0173 19.9319C16.913 19.8276 16.8543 19.6861 16.8541 19.5385L16.8541 17.9366ZM17.4107 28.1135H19.0307C19.4734 28.113 19.8979 27.9369 20.2109 27.6238C20.524 27.3107 20.7001 26.8863 20.7006 26.4435V24.8416C20.7001 24.3989 20.524 23.9744 20.2109 23.6614C19.8979 23.3483 19.4734 23.1722 19.0307 23.1717H17.4107C16.968 23.1722 16.5436 23.3483 16.2305 23.6614C15.9174 23.9744 15.7413 24.3989 15.7408 24.8416V26.4435C15.7413 26.8863 15.9174 27.3107 16.2305 27.6238C16.5436 27.9369 16.968 28.113 17.4107 28.1135ZM16.8541 24.8416C16.8543 24.694 16.913 24.5525 17.0173 24.4482C17.1217 24.3438 17.2632 24.2851 17.4107 24.285H19.0307C19.1782 24.2851 19.3197 24.3438 19.4241 24.4482C19.5284 24.5525 19.5871 24.694 19.5873 24.8416V26.4435C19.5871 26.5911 19.5284 26.7326 19.4241 26.837C19.3197 26.9413 19.1782 27 19.0307 27.0002H17.4107C17.2632 27 17.1217 26.9413 17.0173 26.837C16.913 26.7326 16.8543 26.5911 16.8541 26.4435L16.8541 24.8416ZM11.2288 21.2084H12.8488C13.2915 21.2079 13.716 21.0318 14.029 20.7188C14.3421 20.4057 14.5182 19.9813 14.5187 19.5385V17.9366C14.5182 17.4938 14.3421 17.0694 14.029 16.7563C13.716 16.4433 13.2915 16.2672 12.8488 16.2667H11.2288C10.786 16.2672 10.3616 16.4433 10.0485 16.7563C9.73546 17.0694 9.55936 17.4938 9.55886 17.9366V19.5385C9.55936 19.9813 9.73546 20.4057 10.0485 20.7188C10.3616 21.0318 10.786 21.2079 11.2288 21.2084ZM10.6721 17.9366C10.6723 17.789 10.731 17.6475 10.8354 17.5432C10.9397 17.4388 11.0812 17.3801 11.2288 17.3799H12.8488C12.9963 17.3801 13.1378 17.4388 13.2422 17.5432C13.3465 17.6475 13.4052 17.789 13.4054 17.9366V19.5385C13.4052 19.6861 13.3465 19.8276 13.2422 19.9319C13.1378 20.0363 12.9963 20.095 12.8488 20.0952H11.2288C11.0812 20.095 10.9397 20.0363 10.8354 19.9319C10.731 19.8276 10.6723 19.6861 10.6721 19.5385V17.9366Z" fill="black"/>
</svg>
