<svg width="70" height="60" viewBox="0 0 70 60" fill="none" xmlns="http://www.w3.org/2000/svg">
<path fill-rule="evenodd" clip-rule="evenodd" d="M52.3831 50.7771C52.2463 50.781 52.1096 50.7419 52.0002 50.656C50.9221 49.8396 50.2971 48.4841 50.4768 47.0466C50.6565 45.6091 51.594 44.4528 52.8401 43.9255C53.0354 43.8435 53.2542 43.8708 53.4222 43.9958C54.43 44.7615 55.0433 45.9997 54.9691 47.3317C55.7308 46.6169 56.4574 45.8629 57.1371 45.07C57.1253 45.0622 57.1097 45.0544 57.098 45.0466C55.9574 44.32 55.223 43.0193 55.2855 41.5739C55.348 40.1247 56.1878 38.8942 57.3871 38.2692C57.5707 38.1715 57.7934 38.1793 57.9691 38.2926C59.0355 38.9723 59.7464 40.152 59.7855 41.484C60.3363 40.6012 60.8441 39.6832 61.305 38.7418C60.2034 38.3278 59.2972 37.4293 58.9261 36.2184C58.5004 34.8317 58.8832 33.3903 59.805 32.402C59.9457 32.2458 60.1605 32.1833 60.3636 32.2302C61.4808 32.488 62.4613 33.2302 62.9886 34.2966C63.0238 34.2067 63.0629 34.1169 63.1019 34.027C63.3441 33.1794 63.5472 32.3122 63.7152 31.4332C62.4769 31.3473 61.305 30.6754 60.6254 29.5348C59.8832 28.2887 59.9106 26.8004 60.5707 25.6168C60.6723 25.4332 60.8637 25.3199 61.0707 25.316C62.2621 25.3004 63.434 25.8317 64.2035 26.8082C64.2113 26.5504 64.2152 26.2926 64.2152 26.0309C64.2152 25.4215 64.1957 24.8161 64.1566 24.2184C62.9418 24.4254 61.6449 24.0582 60.7113 23.1168C59.6918 22.0895 59.3597 20.6363 59.7113 19.3316C59.766 19.1285 59.9262 18.9722 60.1293 18.9175C61.2699 18.6168 62.5199 18.8433 63.5004 19.5894C63.2699 18.5699 62.9848 17.5699 62.6527 16.5933C61.4339 17.1011 59.9847 16.9839 58.8402 16.1519C57.6644 15.3004 57.1019 13.9214 57.2425 12.5738C57.2621 12.3668 57.3949 12.1871 57.5824 12.1011C58.5394 11.6754 59.6488 11.6402 60.6449 12.0426C60.3519 11.5074 60.0433 10.984 59.7152 10.4684C58.8636 11.1988 57.7035 11.5622 56.5121 11.3629C55.0824 11.1207 53.9652 10.1324 53.4926 8.86679C53.4184 8.67148 53.4535 8.44882 53.5863 8.28866C54.4106 7.29647 55.6996 6.73786 57.0551 6.89416C56.9536 6.77697 56.852 6.66369 56.7505 6.55041C55.4849 6.67541 54.1802 6.17932 53.3208 5.11681C52.4106 3.99181 52.223 2.51131 52.7075 1.24961C52.7817 1.0543 52.9575 0.913667 53.1645 0.882417C54.4965 0.671477 55.9067 1.15976 56.8207 2.28472C57.6254 3.28081 57.8637 4.55812 57.5707 5.71442C57.6879 5.84333 57.8051 5.97614 57.9223 6.10895C58.0746 4.86285 58.809 3.79645 59.8481 3.19485C60.0317 3.08938 60.2543 3.08938 60.434 3.19485C61.6059 3.87454 62.3949 5.14015 62.3949 6.58935C62.3949 7.92915 61.7191 9.11275 60.6879 9.81985C60.9067 10.1597 61.1137 10.5073 61.3168 10.855C61.5981 9.56595 62.5043 8.54255 63.6645 8.06985C63.8559 7.98782 64.0786 8.01907 64.2426 8.14797C65.3129 8.98 65.9184 10.3394 65.7231 11.7769C65.5239 13.2105 64.5708 14.3589 63.3208 14.8707C63.3013 14.8746 63.2857 14.8824 63.2701 14.8863C63.6412 15.8355 63.9693 16.8043 64.2505 17.7965C64.8833 16.8668 65.8794 16.2692 66.9575 16.1246C67.1646 16.0933 67.3716 16.1793 67.5005 16.3433C68.3247 17.4136 68.5747 18.8863 68.0278 20.2261C67.5122 21.48 66.4223 22.3238 65.188 22.5777C65.2779 23.3746 65.3365 24.1793 65.3638 24.9918C66.2427 24.0739 67.4888 23.6637 68.6919 23.8199C68.9029 23.8473 69.0786 23.9801 69.1607 24.1754C69.6763 25.4254 69.5357 26.9098 68.6568 28.0582C67.8052 29.1715 66.4771 29.7027 65.1763 29.5816C65.0708 30.4879 64.9263 31.3824 64.7427 32.2613C65.6919 31.7262 66.8169 31.6246 67.8325 31.941C68.0317 32.0035 68.1801 32.1715 68.227 32.3746C68.52 33.6949 68.1176 35.1324 67.0512 36.109C66.0121 37.0621 64.602 37.3473 63.3364 36.9957C63.0083 37.8473 62.6411 38.6793 62.2387 39.4918C63.5395 39.0856 64.9106 39.402 65.9028 40.2262C66.063 40.359 66.1411 40.5699 66.1059 40.777C65.8715 42.109 64.9536 43.2848 63.5942 43.7809C62.3403 44.2418 61.0004 44.0191 59.9848 43.3043C59.3872 44.1598 58.7504 44.9879 58.0707 45.777C59.3441 45.6247 60.5785 46.1051 61.4105 46.9997C61.5511 47.1521 61.6019 47.3708 61.5394 47.57C61.141 48.863 60.0824 49.9138 58.6722 50.238C57.2581 50.5583 55.848 50.074 54.9261 49.0857C54.9027 49.0584 54.8793 49.031 54.8597 48.9998C54.5668 49.2537 54.2699 49.4998 53.9652 49.742C53.6371 50.1053 53.2464 50.406 52.809 50.6248C52.7895 50.6365 52.7699 50.6521 52.7504 50.6677C52.641 50.7459 52.5081 50.781 52.3831 50.7771ZM53.1565 48.8943C53.4885 48.5037 53.7151 48.0115 53.7854 47.4607C53.8948 46.5779 53.5706 45.738 52.9807 45.1599C52.2659 45.574 51.7463 46.3083 51.6369 47.1911C51.5275 48.0622 51.8361 48.8903 52.4104 49.4684C52.6604 49.2809 52.9104 49.0896 53.1565 48.8943ZM59.676 8.32031C59.8127 8.48828 59.969 8.64062 60.1408 8.77344C60.801 8.27344 61.2228 7.48044 61.2228 6.58984C61.2228 5.69923 60.8009 4.90624 60.1408 4.40234C59.4846 4.90625 59.0588 5.69923 59.0588 6.58984C59.0588 7.13671 59.2229 7.65234 59.5002 8.08204C59.5588 8.16016 59.6174 8.24219 59.676 8.32031ZM64.9924 21.1643C65.0314 21.2424 65.0705 21.3206 65.1135 21.3948C65.9143 21.1799 66.6057 20.6096 66.9455 19.7854C67.2814 18.9612 67.1877 18.0666 66.7697 17.3518C65.9728 17.5666 65.2775 18.1408 64.9416 18.9651C64.8283 19.2424 64.7619 19.5276 64.7424 19.8088C64.8361 20.258 64.9182 20.7111 64.9924 21.1643ZM63.9299 35.3283C63.9025 35.5275 63.8986 35.7306 63.9182 35.9299C64.7307 36.0744 65.6018 35.8517 66.258 35.2502C66.9181 34.6486 67.2111 33.801 67.1408 32.9768C66.3244 32.8283 65.4533 33.051 64.797 33.6565C64.5431 33.8869 64.3439 34.1565 64.1993 34.4455C64.1134 34.7424 64.0236 35.0353 63.9299 35.3283ZM63.1916 13.6333C63.9143 13.2271 64.4416 12.5005 64.5627 11.6177C64.6838 10.7349 64.3713 9.89111 63.7893 9.30521C63.0705 9.71146 62.5393 10.438 62.4182 11.3208C62.2971 12.2036 62.6096 13.0474 63.1916 13.6333ZM65.5393 28.4303C66.3674 28.4303 67.1838 28.0592 67.7268 27.3522C68.2659 26.6413 68.4104 25.7545 68.1916 24.9577C67.3635 24.9577 66.5471 25.3288 66.0041 26.0358C65.4651 26.7428 65.3206 27.6296 65.5393 28.4303ZM60.7659 42.4223C61.4651 42.8676 62.3557 42.9926 63.1917 42.684C64.0276 42.3793 64.6253 41.7075 64.8714 40.9184C64.1722 40.4731 63.2816 40.3481 62.4456 40.6528C61.6097 40.9614 61.012 41.6333 60.7659 42.4223ZM56.0393 48.5317C56.676 49.059 57.5432 49.2973 58.4104 49.0981C59.2776 48.8989 59.9573 48.3091 60.2971 47.5551C59.6604 47.0278 58.7932 46.7895 57.926 46.9887C57.0588 47.1879 56.3791 47.7778 56.0393 48.5317ZM63.676 30.2587C63.9846 29.4892 63.9416 28.5946 63.4885 27.829C63.0315 27.0634 62.2619 26.5985 61.4377 26.5048C61.1291 27.2743 61.1721 28.1728 61.6291 28.9384C62.0822 29.7001 62.8557 30.165 63.676 30.2587ZM63.8479 23.0829C63.9612 22.2626 63.7034 21.4032 63.0784 20.7704C62.4494 20.1376 61.5901 19.8759 60.7698 19.9813C60.6565 20.8017 60.9143 21.6649 61.5432 22.2938C62.1682 22.9267 63.0276 23.1923 63.8479 23.0829ZM61.9299 15.6141C61.9065 14.786 61.5158 13.9774 60.7932 13.4539C60.0744 12.9305 59.1838 12.8094 58.3909 13.0477C58.4104 13.8758 58.805 14.6844 59.5237 15.2079C60.2464 15.7274 61.137 15.8485 61.9299 15.6141ZM57.4416 43.8521C58.1174 43.3794 58.5783 42.606 58.6135 41.7154C58.6526 40.8248 58.2619 40.0162 57.6252 39.4849C56.9494 39.9615 56.4885 40.7349 56.4533 41.6255C56.4142 42.5122 56.8049 43.3247 57.4416 43.8521ZM61.7189 37.649C62.1994 36.9732 62.3751 36.0943 62.1134 35.2428C61.8517 34.3912 61.215 33.7584 60.4376 33.4694C59.9571 34.1413 59.7814 35.0241 60.0431 35.8756C60.3048 36.7271 60.9415 37.36 61.7189 37.649ZM59.0392 9.50801C58.6525 8.77364 57.9415 8.22281 57.0626 8.07441C56.1876 7.92597 55.336 8.21503 54.7306 8.77753C55.1134 9.51191 55.8244 10.0627 56.7033 10.2111C57.5822 10.3596 58.4338 10.0705 59.0392 9.50801ZM56.4454 5.39861C56.6407 4.59783 56.4727 3.71111 55.9102 3.01971C55.3516 2.3283 54.5235 1.98061 53.6954 2.00411C53.5001 2.8088 53.6681 3.69161 54.2306 4.38301C54.7892 5.07442 55.6173 5.42211 56.4454 5.39861ZM4.89039 29.5666C3.55449 29.7346 2.16769 29.2072 1.29269 28.0588C0.413779 26.9104 0.269288 25.426 0.788778 24.176C0.87081 23.9807 1.04659 23.8479 1.25362 23.8205C2.51142 23.6565 3.81612 24.1135 4.69892 25.1174C4.72626 24.2698 4.78485 23.4299 4.87861 22.6018C3.59341 22.3792 2.45281 21.5198 1.92161 20.2268C1.37473 18.887 1.62083 17.4143 2.44895 16.344C2.57786 16.18 2.78489 16.094 2.99192 16.1253C4.12082 16.2776 5.15602 16.9222 5.78492 17.9261C6.06617 16.8988 6.40601 15.8909 6.79272 14.9105C6.73803 14.9066 6.68334 14.891 6.62866 14.8714C5.37866 14.3597 4.42556 13.2112 4.22636 11.7776C4.03105 10.3401 4.63652 8.98072 5.70296 8.14872C5.87093 8.01981 6.08968 7.98856 6.28499 8.0706C7.49199 8.56279 8.42169 9.6487 8.66389 11.012C8.88264 10.6292 9.1092 10.2503 9.34358 9.8792C8.26938 9.17998 7.55448 7.9651 7.55448 6.5901C7.55448 5.1409 8.34354 3.8753 9.51148 3.1956C9.69507 3.09013 9.91773 3.09013 10.0974 3.1956C11.1716 3.81669 11.9255 4.9339 12.0427 6.2347C12.1599 6.09408 12.281 5.95736 12.406 5.82064C12.0701 4.63704 12.2966 3.31284 13.1287 2.28544C14.0388 1.16044 15.449 0.672138 16.7849 0.883138C16.9919 0.914388 17.1677 1.05502 17.2419 1.25033C17.7224 2.51203 17.5388 3.99253 16.6286 5.11753C15.7927 6.14873 14.5388 6.64483 13.3083 6.56283C13.2146 6.6683 13.1208 6.77377 13.0271 6.87924C14.3318 6.77377 15.5662 7.32846 16.3591 8.28944C16.4919 8.4496 16.5309 8.67225 16.4567 8.86757C15.9841 10.1332 14.8669 11.1215 13.4372 11.3637C12.281 11.559 11.156 11.223 10.3122 10.5355C10.0114 11.0082 9.72627 11.4926 9.45674 11.9847C10.4138 11.6488 11.4567 11.6996 12.3629 12.1019C12.5544 12.1879 12.6872 12.3676 12.7067 12.5746C12.8434 13.9223 12.2809 15.3012 11.109 16.1527C9.99569 16.9574 8.59729 17.0941 7.40199 16.6371C7.08558 17.5668 6.81605 18.516 6.5934 19.4848C7.55043 18.8207 8.734 18.6332 9.82 18.9184C10.0231 18.9731 10.1833 19.1293 10.238 19.3324C10.5895 20.6371 10.2575 22.0902 9.23407 23.1176C8.33173 24.0278 7.08957 24.4028 5.90987 24.2387C5.87472 24.8325 5.85519 25.4301 5.85519 26.0317C5.85519 26.2427 5.85909 26.4575 5.863 26.6684C6.62862 25.7817 7.7419 25.3051 8.8747 25.3168C9.08564 25.3208 9.27704 25.434 9.37861 25.6176C10.0388 26.8012 10.0661 28.2895 9.32392 29.5356C8.66376 30.6411 7.54272 31.3051 6.35512 31.4262C6.5309 32.3637 6.74965 33.2856 7.01137 34.1918C7.55434 33.184 8.50357 32.4809 9.58557 32.2309C9.78869 32.1841 10.0035 32.2466 10.1442 32.4028C11.066 33.3911 11.445 34.8325 11.0231 36.2192C10.6637 37.3911 9.80037 38.2739 8.74577 38.6997C9.17936 39.5942 9.65593 40.4653 10.1716 41.3052C10.2653 40.0474 10.9606 38.9419 11.9763 38.2935C12.156 38.1802 12.3786 38.1724 12.5622 38.2701C13.7614 38.8951 14.6013 40.1256 14.6638 41.5748C14.7263 43.0045 14.0076 44.2936 12.8904 45.024C13.5467 45.7896 14.242 46.5201 14.9763 47.2154C14.9412 45.9263 15.5466 44.7427 16.5271 43.9966C16.6912 43.8716 16.9138 43.8442 17.1052 43.9263C18.3513 44.4536 19.2927 45.6099 19.4724 47.0474C19.6404 48.3872 19.1091 49.649 18.1677 50.4771C18.1599 50.4966 18.1443 50.5161 18.1326 50.5357C18.0115 50.6997 17.8201 50.7856 17.6287 50.7778C17.5388 50.7817 17.4529 50.7661 17.3669 50.731C16.7224 50.4575 16.1599 50.0161 15.7419 49.4498C15.5349 49.2779 15.3279 49.106 15.1248 48.9302C15.1013 48.9849 15.0662 49.0396 15.0193 49.0865C14.0974 50.0748 12.6873 50.5592 11.2771 50.2388C9.86299 49.9146 8.80829 48.8638 8.40599 47.5708C8.34739 47.3716 8.39427 47.1528 8.5388 47.0005C9.40208 46.0747 10.6911 45.5903 12.0115 45.7974C11.3123 44.9849 10.656 44.1333 10.0467 43.2466C9.01939 44.0083 7.6405 44.2544 6.3553 43.7817C4.9959 43.2856 4.078 42.1098 3.8436 40.7778C3.80844 40.5708 3.88656 40.3599 4.04672 40.2271C5.07402 39.3716 6.51151 39.0669 7.85531 39.5396C7.66 39.1489 7.4725 38.7505 7.29672 38.3482C6.99594 37.938 6.78111 37.4732 6.66001 36.981C5.38271 37.356 3.9491 37.0747 2.8983 36.1099C1.8319 35.1333 1.42951 33.6958 1.72251 32.3755C1.76548 32.1723 1.91782 32.0044 2.11704 31.9419C3.18344 31.6098 4.36314 31.7388 5.34364 32.3442C5.15223 31.4341 4.99976 30.508 4.89039 29.5666ZM10.9568 9.55061C11.5583 10.0858 12.3904 10.3553 13.242 10.2108C14.1209 10.0623 14.8318 9.51155 15.2186 8.77717C14.6131 8.21467 13.7616 7.92561 12.8827 8.07405C12.3905 8.15998 11.9491 8.37093 11.5858 8.6678C11.3709 8.95686 11.1638 9.25374 10.9568 9.55061ZM8.25759 37.6366C9.02322 37.3436 9.64819 36.7147 9.90599 35.8749C10.1677 35.0233 9.99193 34.1405 9.51146 33.4687C8.73412 33.7578 8.09736 34.3906 7.83566 35.2421C7.72238 35.6054 7.69113 35.9765 7.73019 36.3319C7.89425 36.7733 8.07009 37.2069 8.25759 37.6366ZM17.5896 49.4136C18.1286 48.8394 18.4177 48.0347 18.3122 47.1909C18.2029 46.3081 17.6794 45.5737 16.9645 45.1597C16.3747 45.7378 16.0544 46.5777 16.1638 47.4605C16.2185 47.9019 16.3747 48.3043 16.6052 48.648C16.9255 48.9097 17.2536 49.1675 17.5896 49.4136ZM8.01929 15.6126C8.81226 15.847 9.70289 15.7259 10.4216 15.2064C11.1442 14.6829 11.5388 13.8744 11.5583 13.0462C10.7653 12.8079 9.87469 12.929 9.15209 13.4524C8.43334 13.9758 8.03879 14.7844 8.01929 15.6126ZM6.09739 23.0814C6.9177 23.1908 7.77709 22.9252 8.40599 22.2923C9.0349 21.6634 9.29271 20.8001 9.17943 19.9798C8.35912 19.8744 7.49973 20.1361 6.87083 20.7689C6.24192 21.4017 5.98411 22.2611 6.09739 23.0814ZM6.03098 35.9294C6.1052 35.1052 5.80832 34.2575 5.15207 33.656C4.49582 33.0505 3.62477 32.8279 2.80827 32.9763C2.73405 33.8005 3.03093 34.6482 3.68718 35.2497C4.34343 35.8512 5.21448 36.0739 6.03098 35.9294ZM4.40988 28.4294C4.62472 27.6286 4.4841 26.7419 3.94113 26.0349C3.40207 25.3279 2.58173 24.9568 1.75363 24.9568C1.53879 25.7537 1.67941 26.6404 2.22238 27.3513C2.76144 28.0583 3.58178 28.4294 4.40988 28.4294ZM4.83176 21.3942C5.24973 20.6833 5.34348 19.7887 5.00754 18.9645C4.6677 18.1403 3.97634 17.5661 3.17554 17.3512C2.75757 18.066 2.66773 18.9606 3.00366 19.7848C3.3396 20.609 4.03486 21.1793 4.83176 21.3942ZM6.75366 13.6325C7.3396 13.0466 7.6521 12.2028 7.5271 11.32C7.40601 10.4372 6.87866 9.71061 6.1599 9.30441C5.57396 9.89035 5.26146 10.7341 5.38256 11.6169C5.50756 12.4997 6.0349 13.2263 6.75366 13.6325ZM9.80446 8.77311C10.4646 8.27311 10.8865 7.48011 10.8865 6.58951C10.8865 5.6989 10.4646 4.90591 9.80446 4.40201C9.14821 4.90592 8.72246 5.6989 8.72246 6.58951C8.72246 7.48011 9.14824 8.27311 9.80446 8.77311ZM13.5037 5.39811C14.3279 5.42154 15.1599 5.07389 15.7185 4.38251C16.281 3.6911 16.4489 2.80831 16.2536 2.00361C15.4255 1.98017 14.5974 2.32783 14.0388 3.01921C13.4763 3.71062 13.3084 4.59731 13.5037 5.39811ZM13.9099 48.5311C13.5662 47.7772 12.8904 47.1873 12.0193 46.9881C11.1521 46.7889 10.2849 47.0272 9.64821 47.5545C9.99196 48.3084 10.6677 48.8983 11.5388 49.0975C12.406 49.2967 13.2732 49.0585 13.9099 48.5311ZM9.18331 42.4217C8.93722 41.6326 8.33956 40.9608 7.50361 40.6522C6.66767 40.3475 5.77701 40.4725 5.07781 40.9178C5.3239 41.7069 5.92156 42.3787 6.75751 42.6834C7.59345 42.992 8.48411 42.867 9.18331 42.4217ZM6.26921 30.2577C7.09343 30.164 7.86301 29.6991 8.32001 28.9374C8.77704 28.1718 8.8161 27.2733 8.51142 26.5038C7.6872 26.5976 6.91762 27.0624 6.46062 27.828C6.00359 28.5936 5.96453 29.4882 6.26921 30.2577ZM12.5075 43.8517C13.1442 43.3244 13.5348 42.5119 13.4958 41.6251C13.4567 40.7345 12.9997 39.961 12.32 39.4845C11.6872 40.0158 11.2966 40.8243 11.3317 41.715C11.3708 42.6056 11.8278 43.3791 12.5075 43.8517ZM25.0425 44.4728C18.5855 40.9337 14.2065 34.0708 14.2065 26.1958C14.2065 14.6998 23.5385 5.3638 35.0345 5.3638C46.5305 5.3638 55.8625 14.6997 55.8625 26.1958C55.8625 34.0708 51.4797 40.9338 45.0225 44.4728C45.0616 44.5509 45.0811 44.6369 45.0811 44.7267V48.6681C45.0811 48.9884 44.8194 49.2501 44.4991 49.2501H43.7686L45.7061 56.4298C45.7569 56.6134 45.71 56.8126 45.5889 56.9611C45.4639 57.1056 45.2764 57.1837 45.085 57.1642L41.46 56.797L38.1748 59.0353C38.0186 59.1408 37.8193 59.1642 37.6436 59.1017C37.4639 59.0353 37.3311 58.8869 37.2803 58.7033L35.0342 50.3791L32.7842 58.7033C32.7373 58.8869 32.6006 59.0353 32.4248 59.1017C32.249 59.1642 32.0498 59.1408 31.8935 59.0353L28.6083 56.797L24.9833 57.1642C24.7919 57.1837 24.6044 57.1056 24.4794 56.9611C24.3544 56.8126 24.3115 56.6134 24.3622 56.4298L26.2997 49.2501H25.5693C25.2451 49.2501 24.9872 48.9884 24.9872 48.6681V44.7267C24.9872 44.6369 25.0074 44.5509 25.0425 44.4728ZM43.9135 45.0392C41.2182 46.3126 38.2104 47.0236 35.0346 47.0236C31.8588 47.0236 28.8471 46.3127 26.1557 45.0392V48.0822H27.0502H34.8783H35.1674H35.1869H42.9955H43.019H43.9135L43.9135 45.0392ZM35.9408 49.2501C36.5228 51.4181 38.1947 57.6056 38.1947 57.6056L40.9799 55.7111C41.0932 55.633 41.2299 55.5978 41.3666 55.6134L44.3588 55.9142L42.558 49.2501L35.9408 49.2501ZM27.5111 49.2501L25.7103 55.9142L28.7025 55.6134C28.8392 55.5978 28.976 55.633 29.0892 55.7111L31.8704 57.6056L34.1282 49.2501L27.5111 49.2501ZM35.0345 6.53511C24.1825 6.53511 15.3745 15.3437 15.3745 26.1951C15.3745 37.0471 24.1831 45.8551 35.0345 45.8551C45.8865 45.8551 54.6945 37.0465 54.6945 26.1951C54.6945 15.3431 45.8859 6.53511 35.0345 6.53511ZM35.0345 8.72261C44.679 8.72261 52.5075 16.5507 52.5075 26.1956C52.5075 35.8362 44.6794 43.6686 35.0345 43.6686C25.39 43.6686 17.5615 35.8366 17.5615 26.1956C17.5615 16.5511 25.3896 8.72261 35.0345 8.72261ZM35.0345 9.8906C26.0345 9.8906 18.7295 17.1953 18.7295 26.1956C18.7295 35.1917 26.0342 42.5006 35.0345 42.5006C44.0306 42.5006 51.3395 35.192 51.3395 26.1956C51.3395 17.1956 44.0309 9.8906 35.0345 9.8906ZM35.0345 12.9726C42.3314 12.9726 48.2575 18.8945 48.2575 26.1956C48.2575 33.4925 42.3317 39.4186 35.0345 39.4186C27.7373 39.4186 21.8115 33.4928 21.8115 26.1956C21.8115 18.8948 27.7373 12.9726 35.0345 12.9726ZM35.0345 14.1406C28.3822 14.1406 22.9795 19.5429 22.9795 26.1956C22.9795 32.8479 28.3818 38.2466 35.0345 38.2466C41.6872 38.2466 47.0895 32.8482 47.0895 26.1956C47.0895 19.5433 41.6872 14.1406 35.0345 14.1406ZM34.1986 20.25C34.3431 19.9023 34.6751 19.6875 35.0345 19.6875C35.3939 19.6875 35.722 19.9023 35.8705 20.25L37.0932 23.1406L40.058 23.4765C40.4095 23.5156 40.7181 23.7617 40.8275 24.1211C40.933 24.4609 40.8314 24.8359 40.5814 25.0781L38.347 27.2109L38.9681 30.332C39.0384 30.6836 38.9017 31.0468 38.6243 31.2578C38.3275 31.4883 37.929 31.5078 37.6087 31.3164L35.0345 29.75L32.4564 31.3164C32.14 31.5078 31.7416 31.4883 31.4447 31.2578C31.1674 31.0468 31.0268 30.6836 31.0971 30.332L31.7182 27.2109L29.4877 25.0781C29.2338 24.8359 29.1361 24.4609 29.2416 24.1211C29.3509 23.7617 29.6556 23.5156 30.0111 23.4765L32.972 23.1406L34.1986 20.25ZM30.6556 24.5781L32.7572 26.5859C32.9017 26.7265 32.9681 26.9257 32.9291 27.125L32.3548 30.0117L34.7298 28.5664C34.9173 28.4531 35.1517 28.4531 35.3392 28.5664L37.7142 30.0117L37.14 27.125C37.1009 26.9257 37.1634 26.7265 37.308 26.5859L39.4096 24.5781L36.6244 24.2617C36.4134 24.2383 36.2337 24.1054 36.1517 23.9101L35.0345 21.2695L33.9173 23.9101C33.8353 24.1054 33.6517 24.2383 33.4446 24.2617L30.6556 24.5781Z" fill="black"/>
</svg>
