<svg width="80" height="73" viewBox="0 0 80 73" fill="none" xmlns="http://www.w3.org/2000/svg">
<path d="M69.2142 26.4502H48.8568C48.3032 26.4502 47.8545 26.8989 47.8545 27.4525C47.8545 28.0062 48.3032 28.4549 48.8568 28.4549H69.2142C69.7678 28.4549 70.2165 28.0062 70.2165 27.4525C70.2165 26.8989 69.7678 26.4502 69.2142 26.4502Z" fill="black"/>
<path d="M69.2142 35.6255H26.5736C26.02 35.6255 25.5713 36.0742 25.5713 36.6278C25.5713 37.1815 26.02 37.6302 26.5736 37.6302H69.2142C69.7678 37.6302 70.2165 37.1815 70.2165 36.6278C70.2165 36.0742 69.7678 35.6255 69.2142 35.6255Z" fill="black"/>
<path d="M70.2165 41.2716C70.2165 40.718 69.7678 40.2693 69.2142 40.2693H26.5736C26.02 40.2693 25.5713 40.718 25.5713 41.2716C25.5713 41.8253 26.02 42.274 26.5736 42.274H69.2142C69.7678 42.274 70.2165 41.8253 70.2165 41.2716Z" fill="black"/>
<path d="M51.7048 45.9152C51.7048 45.3615 51.2561 44.9128 50.7025 44.9128H26.5736C26.02 44.9128 25.5713 45.3615 25.5713 45.9152C25.5713 46.4688 26.02 46.9175 26.5736 46.9175H50.7025C51.2561 46.9175 51.7048 46.4688 51.7048 45.9152Z" fill="black"/>
<path d="M26.5736 52.8594C26.02 52.8594 25.5713 53.3081 25.5713 53.8617C25.5713 54.4153 26.02 54.864 26.5736 54.864H38.6696C39.2232 54.864 39.6719 54.4153 39.6719 53.8617C39.6719 53.3081 39.2232 52.8594 38.6696 52.8594H26.5736Z" fill="black"/>
<path d="M15.7453 29.0519H15.7455L15.7449 29.0513L15.7453 29.0519Z" fill="black"/>
<path d="M26.5783 24.9077C32.8826 20.9569 35.1704 17.6051 35.0187 16.9372L30.4868 9.71045L22.9182 18.0462C22.6708 18.3188 22.3529 18.518 21.9996 18.6219L11.1992 21.7977L15.7345 29.0347C16.3044 29.4499 20.3092 28.8364 26.5783 24.9077Z" fill="black"/>
<path d="M4.9567 32.8003L4.85343 23.6636L2.85512 24.2512L2.95203 32.8227L0.274892 37.8797C0.0158904 38.3691 0.202458 38.9756 0.691879 39.2348C0.841251 39.3139 1.00178 39.3515 1.15996 39.3515C1.5192 39.3515 1.86669 39.1573 2.0466 38.8178L2.9994 37.0179L3.03621 40.2771C3.04247 40.8268 3.49 41.268 4.03835 41.268C4.04207 41.268 4.04598 41.268 4.0499 41.268C4.60333 41.2618 5.04714 40.808 5.04088 40.2544L5.00407 36.9957L5.99701 38.7732C6.26717 39.2563 6.87778 39.4294 7.36093 39.1592C7.84429 38.8891 8.01715 38.2787 7.74718 37.7951L4.9567 32.8003Z" fill="black"/>
<path d="M35.7929 0.884277L15.3002 6.91006L0.941406 22.7243L21.4342 16.6985L35.7929 0.884277Z" fill="black"/>
<path d="M77.655 18.6133V50.2016C78.3663 50.661 79.0378 51.1764 79.6596 51.7461V17.611C79.6596 17.0573 79.2109 16.6086 78.6573 16.6086H36.9927C37.0939 17.2159 36.9203 17.8951 36.5444 18.6133H77.655Z" fill="black"/>
<path d="M54.5371 62.7012H18.1328V30.9143C17.4784 31.056 16.8857 31.1356 16.3735 31.1356C16.2884 31.1357 16.2092 31.1299 16.1282 31.126V63.7035C16.1282 64.2571 16.5769 64.7058 17.1305 64.7058H54.6586C54.5797 64.0831 54.5344 63.4498 54.5344 62.8057C54.5344 62.7706 54.5369 62.7361 54.5371 62.7012Z" fill="black"/>
<path fill-rule="evenodd" clip-rule="evenodd" d="M69.5 73C75.299 73 80 68.299 80 62.5C80 56.701 75.299 52 69.5 52C63.701 52 59 56.701 59 62.5C59 68.299 63.701 73 69.5 73ZM72.1989 61.8295L72.6136 60.25H71.0012C70.9278 59.7985 70.7815 59.3932 70.5625 59.0341C70.5487 59.0111 70.5345 58.9884 70.5201 58.9659H72.1989L72.625 57.3636H66.6932H66.3523H65.0455L64.5795 59.358H66.6932C67.3826 59.358 67.8769 59.5246 68.1761 59.858C68.2849 59.9762 68.3743 60.1069 68.4445 60.25H64.9886L64.5795 61.8295H68.5194C68.4901 61.9121 68.4552 61.9916 68.4148 62.0682C68.2708 62.3409 68.0549 62.5568 67.767 62.7159C67.4792 62.875 67.1212 62.9545 66.6932 62.9545H64.7727L64.767 64.375L68.6534 69H71.3295V68.8977L67.8523 64.642L67.9432 64.608C68.6742 64.4489 69.267 64.2064 69.7216 63.8807C70.1799 63.5549 70.5152 63.1477 70.7273 62.6591C70.8395 62.4051 70.9231 62.1286 70.978 61.8295H72.1989Z" fill="black"/>
</svg>
