<svg width="43" height="34" viewBox="0 0 43 34" fill="none" xmlns="http://www.w3.org/2000/svg">
<path d="M29.5538 3.28275C26.4976 0.53376 23.3877 -0.126581 21.6141 3.01399L15.425 10.0474C12.2595 13.6429 8.36457 16.5206 3.99718 18.4863C-2.49123 21.506 -0.663783 30.9663 6.47741 31.0892C8.54296 31.2658 10.5778 29.4844 12.3668 29.3538C13.5512 31.9588 16.3328 33.4504 19.1584 32.9916C21.9841 32.5347 24.1533 30.2407 24.4546 27.3956L32.7245 27.3802C36.1645 27.9562 37.7101 25.2667 37.654 21.1837C37.6233 15.5072 33.7993 7.04516 29.5532 3.28273L29.5538 3.28275ZM20.132 31.1122C17.7343 32.193 14.9124 31.1506 13.7949 28.7702C16.755 27.8987 19.8189 27.438 22.9037 27.4035C22.6772 29.0333 21.6312 30.4346 20.132 31.1122ZM36.1115 21.2142C36.1748 29.4015 30.1951 25.2148 27.3733 21.0069V21.005C29.4081 19.4232 30.0935 16.6531 29.0319 14.3033C27.9684 11.9556 25.4363 10.6406 22.9042 11.1224C20.6006 0.925101 25.8835 -0.203726 31.3583 7.76681C33.9153 11.4219 36.0961 17.1889 36.1115 21.2142Z" fill="black"/>
<path d="M38.8762 10.6121C38.9837 10.6121 39.0931 10.589 39.191 10.5449L42.3508 9.11469V9.11277C42.537 9.03023 42.6829 8.87474 42.7558 8.68469C42.8269 8.49272 42.8211 8.28156 42.7366 8.09536C42.6522 7.90916 42.4986 7.76518 42.3066 7.69223C42.1147 7.6212 41.9035 7.62888 41.7173 7.71143L38.5575 9.1416V9.14352C38.235 9.29709 38.0603 9.65417 38.1371 10.0035C38.212 10.3529 38.5172 10.6044 38.8762 10.6121Z" fill="black"/>
<path d="M35.9221 8.04717C36.3195 8.1969 36.7629 7.99534 36.9127 7.59797L38.1355 4.35179C38.2852 3.95442 38.0837 3.511 37.6863 3.36126C37.2889 3.21152 36.8455 3.41309 36.6958 3.81046L35.4729 7.05663C35.4019 7.24668 35.4076 7.45784 35.4921 7.64404C35.5766 7.83025 35.7302 7.97422 35.9221 8.04717Z" fill="black"/>
<path d="M42.5131 14.025L39.267 12.8021L39.2689 12.8002C38.8734 12.6601 38.4396 12.8617 38.2918 13.2552C38.1439 13.6468 38.3378 14.0845 38.7256 14.24C38.8158 14.2534 42.2463 15.6183 42.2424 15.5127C42.611 15.5069 42.922 15.242 42.9891 14.8792C43.0544 14.5183 42.8548 14.1594 42.5131 14.025Z" fill="black"/>
</svg>
