<svg width="43" height="40" viewBox="0 0 43 40" fill="none" xmlns="http://www.w3.org/2000/svg">
<path d="M21.4663 25.6259C21.7182 25.6024 22.0163 25.6796 22.233 25.8085C22.5137 25.9757 22.7348 26.2861 22.956 26.5243C23.3701 26.9701 23.777 27.4225 24.1951 27.8643C24.8382 28.5437 25.484 29.2188 26.1243 29.901C26.3801 30.1732 26.6601 30.432 26.8966 30.7214C27.0345 30.8899 27.1335 31.0691 27.1886 31.281L27.1987 31.3208C27.2426 31.4897 27.2587 31.6788 27.2249 31.8513L27.2188 31.8808C27.1964 31.9956 27.166 32.1019 27.1185 32.2091C26.971 32.5417 26.6636 32.8498 26.3176 32.9724L26.2804 32.9853C26.0337 33.0709 25.7708 33.0854 25.5175 33.0161L25.4773 33.0046C25.2905 32.9553 25.1201 32.8771 24.9666 32.7577C24.6192 32.488 24.3211 32.0838 24.0257 31.7571C23.6645 31.3578 23.2764 30.971 22.9403 30.5507C22.9789 30.9553 22.9474 31.3836 22.946 31.791C22.9435 32.5712 22.9432 33.3514 22.9455 34.1318C22.9485 35.1185 22.9483 36.1051 22.9485 37.092C22.9485 37.5757 22.9899 38.096 22.9367 38.5759C22.9112 38.8027 22.8283 39.0239 22.7067 39.2166C22.4627 39.6028 22.1224 39.7833 21.6869 39.883L21.5061 39.891C21.1222 39.8891 20.7709 39.744 20.5023 39.4667C20.2994 39.2573 20.1404 38.9825 20.0895 38.6943C20.0384 38.4055 20.064 38.0905 20.0633 37.7977C20.0622 37.3076 20.0603 36.8175 20.059 36.3274C20.054 34.4007 20.0465 32.4715 20.0677 30.5451C19.9618 30.7001 19.8274 30.8359 19.7017 30.9749C19.4996 31.1987 19.2967 31.4218 19.0932 31.6443C18.8929 31.8633 18.6964 32.085 18.4998 32.307C18.3242 32.5052 18.144 32.725 17.9147 32.8631C17.6059 33.0492 17.1706 33.0988 16.8218 33.0117C16.4594 32.9214 16.162 32.7047 15.9726 32.3815C15.7773 32.048 15.7345 31.6585 15.8305 31.2865C15.8833 31.0823 15.971 30.9041 16.1021 30.7386C16.3382 30.4402 16.6289 30.1691 16.8893 29.89C17.5177 29.2166 18.1564 28.5541 18.7885 27.8845C19.1842 27.4652 19.5817 27.0473 19.9748 26.6261C20.2008 26.3838 20.4244 26.0901 20.6893 25.8913C20.9206 25.7173 21.1851 25.6593 21.4663 25.6259Z" fill="black"/>
<path fill-rule="evenodd" clip-rule="evenodd" d="M2.77247 0.120759C2.25211 0.112867 1.72902 0.10494 1.21461 0.133423C0.816979 0.199973 0.497553 0.380311 0.261482 0.713453C0.107132 0.931263 0.0255585 1.1794 0.0149241 1.44536C-0.0069666 1.99285 -0.000181754 2.54626 0.00658479 3.09795C0.00983091 3.3627 0.0130771 3.62706 0.0131411 3.89018C0.0133789 4.85663 0.012565 5.82306 0.0117603 6.78948C0.0112666 7.3747 0.0107819 7.96 0.0105259 8.54531C0.00907199 11.8602 0.00948347 15.1751 0.00988581 18.4899C0.0100778 20.0368 0.0102699 21.5836 0.0102699 23.1305C0.0102699 23.7654 0.0100137 24.4003 0.00976686 25.0352C0.00907192 26.7668 0.0083862 28.4983 0.0128485 30.2299C0.013388 30.4415 0.0143664 30.6531 0.0153357 30.8648C0.0169725 31.2208 0.0186091 31.577 0.0182068 31.9332C0.0181154 32.0181 0.0152533 32.1074 0.0123364 32.1986C0.00473776 32.4357 -0.00325404 32.6852 0.0360651 32.9016C0.1032 33.2707 0.318788 33.6066 0.629756 33.8178C0.756282 33.9038 0.892646 33.967 1.03986 34.0073L1.0782 34.0185C1.36368 34.0969 1.71225 34.0865 2.03614 34.0768C2.14101 34.0736 2.2433 34.0706 2.34002 34.0706C2.7457 34.0708 3.15133 34.0665 3.55693 34.0621C3.96249 34.0578 4.36804 34.0535 4.7736 34.0537C5.77429 34.0542 6.77535 34.0595 7.77651 34.0648C9.86015 34.0758 11.9443 34.0868 14.0266 34.0548L14.0293 31.3331L2.81843 31.3093L2.82168 26.5856C3.24921 26.1821 3.6839 25.7871 4.11873 25.392C4.32245 25.2068 4.52622 25.0217 4.72928 24.8357C4.97012 24.6149 5.21058 24.3938 5.45105 24.1726C6.04516 23.6262 6.63937 23.0797 7.23976 22.5405C7.77221 22.0623 8.30266 21.5832 8.83054 21.0999C8.90113 21.0353 8.97373 20.9707 9.04688 20.9056C9.27795 20.7 9.51442 20.4896 9.70873 20.2591C10.3611 20.8378 11.0041 21.4299 11.6463 22.0214C11.8694 22.2269 12.0924 22.4323 12.3157 22.637C12.5333 22.8366 12.7518 23.0353 12.9702 23.2341L13.0532 23.3097C13.0884 23.3417 13.1234 23.3743 13.1584 23.4069C13.3091 23.5474 13.4612 23.6892 13.64 23.7914C13.8538 23.9137 14.1119 23.9592 14.3558 23.9441C14.599 23.9291 14.8648 23.8518 15.0614 23.7057C15.2037 23.5999 15.332 23.4683 15.4595 23.3374C15.5376 23.2573 15.6154 23.1776 15.6958 23.1043C16.2486 22.6002 16.8056 22.0989 17.3619 21.5987C18.2208 20.8269 19.0826 20.0587 19.9445 19.2906C20.8961 18.4425 21.8477 17.5943 22.7952 16.7412C22.8044 16.733 22.8227 16.7161 22.8473 16.6933C22.9841 16.5672 23.3152 16.2617 23.3505 16.2648C23.374 16.2667 23.4847 16.3677 23.5396 16.4178C23.5513 16.4285 23.5606 16.4368 23.5658 16.4415C23.9885 16.8125 24.3985 17.1989 24.8082 17.5851C24.9748 17.7421 25.1413 17.8991 25.3086 18.055C25.5929 18.3196 25.8794 18.5818 26.166 18.8442C26.4876 19.1385 26.8092 19.433 27.1276 19.7308C27.4843 20.0645 27.845 20.3896 28.208 20.716C28.2531 20.7565 28.2977 20.7995 28.3427 20.8428C28.4582 20.954 28.5761 21.0673 28.7097 21.1479C28.9537 21.2947 29.2093 21.3376 29.4906 21.3214C29.7265 21.3077 29.9467 21.2263 30.1463 21.1024C30.3854 20.9539 30.5955 20.7447 30.8022 20.5387C30.9036 20.4378 31.0041 20.3376 31.1068 20.2459C31.2534 20.1149 31.4051 19.9871 31.5572 19.859C31.8161 19.6407 32.076 19.4217 32.3125 19.1858L32.716 19.5363L40.195 26.5234L40.1994 31.3165L28.9754 31.3105L28.9756 34.0704L29.006 34.0679C29.2769 34.0488 29.5529 34.0514 29.8268 34.054C29.9241 34.0549 30.0211 34.0558 30.1175 34.0557C30.4401 34.0556 30.7628 34.0562 31.0854 34.0569C31.4271 34.0577 31.7688 34.0584 32.1104 34.058C34.2499 34.0556 36.3898 34.0548 38.5293 34.0658C38.909 34.0678 39.2889 34.0672 39.6685 34.0666C39.9883 34.0662 40.308 34.0657 40.6275 34.0667C40.7286 34.0671 40.8332 34.0703 40.9394 34.0737C41.2161 34.0823 41.5029 34.0913 41.7621 34.0489C42.0915 33.9949 42.4306 33.7942 42.652 33.5455C42.8594 33.3123 42.9586 33.0269 42.9787 32.718C43.0079 32.2725 43.0008 31.8146 42.9938 31.3609C42.9908 31.1667 42.9878 30.9732 42.9876 30.7817C42.987 29.5578 42.9858 28.3342 42.9829 27.1102C42.9784 25.3291 42.9809 23.5479 42.9836 21.7668C42.9859 20.1621 42.9882 18.5574 42.9853 16.9527C42.9808 14.3432 42.9819 11.7335 42.983 9.12394C42.9834 8.25453 42.9839 7.38521 42.984 6.5158C42.9842 5.29581 42.9835 4.07617 42.976 2.85618C42.9749 2.68029 42.9783 2.50255 42.9817 2.32439C42.9875 2.01482 42.9934 1.70402 42.976 1.39954C42.9551 1.03422 42.781 0.691645 42.5078 0.447199C42.2998 0.260936 42.0266 0.138297 41.7472 0.124005C41.2892 0.10056 40.8221 0.109658 40.3573 0.118719C40.1098 0.123538 39.8631 0.128348 39.6185 0.128238C38.3214 0.127635 37.0245 0.128321 35.7275 0.128997C35.481 0.129125 35.2347 0.129253 34.9883 0.129381C32.1623 0.130744 29.3365 0.129656 26.5104 0.128558C24.753 0.127882 22.9954 0.127205 21.2377 0.127114C18.5683 0.126995 15.8989 0.127726 13.2294 0.128467C11.4163 0.12897 9.60302 0.129463 7.78986 0.129701C6.34886 0.129884 4.90777 0.129656 3.46672 0.128055C3.23652 0.12779 3.00477 0.124279 2.77247 0.120759ZM40.1964 2.96431L8.096 2.95109L2.80874 2.96245L2.81576 22.746C3.05583 22.4944 3.31891 22.2627 3.58088 22.0321C3.658 21.9642 3.73503 21.8963 3.81133 21.8281C4.01575 21.6454 4.22068 21.4633 4.42562 21.281C4.79437 20.9532 5.16313 20.6255 5.52885 20.2943C5.78043 20.0665 6.0338 19.8404 6.28721 19.6141C6.66959 19.2728 7.05203 18.9313 7.42849 18.5846C7.5715 18.4529 7.71369 18.3178 7.85634 18.1822C8.17601 17.8783 8.49797 17.5722 8.83612 17.2985C8.97538 17.1856 9.11921 17.1131 9.29231 17.0647L9.33117 17.0534C9.67435 16.9593 10.0684 17.0125 10.3761 17.1877C10.5278 17.2741 10.6603 17.3981 10.7886 17.5182C10.8099 17.5381 10.8311 17.5579 10.8522 17.5775C10.9992 17.7132 11.1491 17.8462 11.2989 17.979C11.3188 17.9967 11.3387 18.0144 11.3587 18.0321C12.0881 18.6797 12.818 19.3273 13.549 19.9731C13.6148 20.0312 13.6806 20.0893 13.7463 20.1474C13.8285 20.22 13.9107 20.2925 13.9928 20.3651C14.015 20.3848 14.0375 20.4061 14.0603 20.4276C14.1203 20.4842 14.1829 20.5431 14.2499 20.5825C14.51 20.3324 14.7846 20.0975 15.0591 19.8626C15.2424 19.7058 15.4256 19.549 15.6047 19.3876C16.301 18.7598 17.0002 18.1352 17.6996 17.5107C18.3152 16.9608 18.931 16.4109 19.5446 15.8587C19.7662 15.6594 19.9873 15.4598 20.2085 15.2602C20.7103 14.8072 21.2121 14.3544 21.7178 13.9052C21.8044 13.8283 21.8912 13.7436 21.979 13.6578C22.1579 13.4831 22.3414 13.3038 22.5375 13.1766C22.8174 12.9951 23.0695 12.9439 23.4003 12.9502C23.4563 12.9513 23.5077 12.9564 23.5629 12.9662L23.6008 12.9727C23.8145 13.012 24.0029 13.111 24.1771 13.2385C24.4648 13.4489 24.733 13.7012 24.9987 13.9512C25.1267 14.0717 25.254 14.1915 25.3827 14.3059C26.4771 15.2784 27.5518 16.2808 28.6226 17.2797L28.7847 17.4311L29.3336 17.9401C29.722 17.6588 30.0992 17.3544 30.4629 17.0419C30.6901 16.8464 30.9139 16.6469 31.1368 16.4464C31.1648 16.4211 31.1931 16.3952 31.2215 16.3691C31.3825 16.2211 31.5524 16.0651 31.7492 15.9763C32.0125 15.8574 32.3022 15.8445 32.585 15.8874C32.8102 15.9216 33.0328 16.0132 33.2153 16.1487C33.4341 16.3112 33.6332 16.5064 33.8304 16.6997C33.903 16.771 33.9753 16.8418 34.0483 16.9109C34.5059 17.3432 34.966 17.7753 35.4267 18.2044C35.936 18.6788 36.4414 19.1574 36.9467 19.6359C37.4261 20.0898 37.9056 20.5438 38.3882 20.994C38.6837 21.2694 38.9833 21.5406 39.2829 21.8116C39.5862 22.086 39.8895 22.3603 40.1885 22.6392L40.1964 2.96431Z" fill="black"/>
<path fill-rule="evenodd" clip-rule="evenodd" d="M14.2467 5.45213C13.4199 4.70699 12.344 4.36711 11.2401 4.41274C10.9999 4.42874 10.752 4.44748 10.5163 4.50025C9.65354 4.69355 8.80132 5.21622 8.22123 5.87843C7.49172 6.71117 7.11819 7.81439 7.19301 8.91661C7.27034 10.055 7.8124 11.105 8.67651 11.8478C9.49462 12.551 10.5583 12.9326 11.6422 12.8683C12.7787 12.8228 13.8556 12.33 14.6297 11.4933C15.396 10.6651 15.742 9.51965 15.6859 8.40372C15.6291 7.27078 15.0857 6.20834 14.2467 5.45213ZM12.2536 7.42184C11.9838 7.24481 11.5888 7.15026 11.2677 7.19827C10.8438 7.27334 10.4767 7.46701 10.2277 7.82637C10.0151 8.13342 9.95483 8.55231 10.0226 8.91706C10.0955 9.30952 10.3143 9.59957 10.6414 9.82012C10.9698 10.0416 11.2697 10.0944 11.6618 10.0707C12.1156 9.98261 12.4219 9.78565 12.6786 9.39767C12.8854 9.0854 12.9401 8.70154 12.8639 8.33761C12.7887 7.97816 12.5629 7.62465 12.2536 7.42184Z" fill="black"/>
</svg>
