<svg width="88" height="64" viewBox="0 0 88 64" fill="none" xmlns="http://www.w3.org/2000/svg">
<path d="M4.81594 2.1211C6.26124 1.23048 7.92534 0.7578 9.62454 0.75H78.3745C80.0737 0.757812 81.7378 1.23047 83.1831 2.1211L45.7341 27.0901C44.6833 27.7932 43.3161 27.7932 42.2653 27.0901L4.81594 2.1211ZM49.1909 32.2891C46.0425 34.3946 41.937 34.3946 38.7889 32.2891L0.83594 6.9771C0.45703 7.9849 0.26172 9.0513 0.25 10.1255V53.8755C0.25 59.0513 4.4492 63.2505 9.625 63.2505H78.375C83.5508 63.2505 87.75 59.0513 87.75 53.8755V10.1255C87.7383 9.0513 87.543 7.9849 87.168 6.9771L49.1909 32.2891Z" fill="black"/>
</svg>
