<svg width="32" height="32" viewBox="0 0 32 32" fill="none" xmlns="http://www.w3.org/2000/svg">
<path d="M15.9733 10.6667C13.4133 10.6667 12.2933 12.7733 12.2933 14.9867C12.2933 17.7067 14 19.0667 14 20C14 20.4 13.68 20.8533 13.04 21.2L9.30667 23.2C8.18667 23.7867 8.64 26.6667 8.64 26.6667H23.3067C23.3067 26.6667 23.8133 23.84 22.64 23.2L18.9067 21.2C18.1867 20.8267 17.8933 20.4267 17.8933 20.0533C17.8933 19.2267 19.6267 17.92 19.6267 14.96C19.6267 12.3733 18.2933 10.6667 15.9733 10.6667ZM1.33333 32C0 32 0 32 0 30.6667V1.33333C0 0 0 0 1.33333 0H30.6667C32 0 32 0 32 1.33333V30.6667C32 32 32 32 30.6667 32H1.33333ZM4 5.33333C4.74667 5.33333 5.33333 4.74667 5.33333 4C5.33333 3.25333 4.74667 2.66667 4 2.66667C3.25333 2.66667 2.66667 3.25333 2.66667 4C2.66667 4.74667 3.25333 5.33333 4 5.33333ZM8.02667 5.33333C8.8 5.33333 9.36 4.74667 9.36 4C9.36 3.25333 8.8 2.66667 8.02667 2.66667C7.28 2.66667 6.69333 3.25333 6.69333 4C6.69333 4.74667 7.28 5.33333 8.02667 5.33333ZM12 5.33333C12.7467 5.33333 13.3333 4.74667 13.3333 4C13.3333 3.25333 12.7467 2.66667 12 2.66667C11.2533 2.66667 10.6667 3.25333 10.6667 4C10.6667 4.74667 11.2533 5.33333 12 5.33333Z" fill="black"/>
</svg>
