<svg width="94" height="90" viewBox="0 0 94 90" fill="none" xmlns="http://www.w3.org/2000/svg">
<path fill-rule="evenodd" clip-rule="evenodd" d="M57.7893 29.32C59.0705 29.2223 60.2073 28.2536 60.8674 27.1091H54.2736C54.9533 28.4489 56.2893 29.4216 57.7893 29.32ZM13.2893 11.793H73.4613V3.3633C73.4613 1.5156 71.9457 0 70.098 0L16.653 0.00390577C14.8053 0.00390577 13.2897 1.51951 13.2897 3.36721L13.2893 11.793ZM73.4613 13.7891V50.1481C73.4613 51.9958 71.9457 53.5114 70.098 53.5114L16.653 53.5075C14.8053 53.5075 13.2897 51.9919 13.2897 50.1442V13.7892L73.4613 13.7891ZM75.4574 21.2657V26.3985H77.8636C79.9808 26.3985 81.7269 28.129 81.7269 30.2618V59.7658L86.7503 61.7931L86.7464 27.7661C86.7464 24.2544 84.012 21.2622 80.5237 21.2622L75.4574 21.2657ZM75.4574 28.3907H77.8636C78.3792 28.3907 78.8441 28.6016 79.1839 28.9376L79.18 28.9415C79.5199 29.2813 79.7308 29.7462 79.7308 30.2579V58.9529L73.8011 56.5584C71.6136 55.6756 69.0863 58.1522 69.9378 60.367L71.598 64.6717L8.88699 64.6756C8.37527 64.6756 7.90652 64.4647 7.57059 64.1248C7.46512 64.1248 7.01981 63.4568 7.01981 62.8084V30.2574C7.01981 29.234 7.86356 28.3902 8.88701 28.3902H11.2932V50.1442C11.2932 53.0934 13.7034 55.4997 16.6487 55.4997H70.0937C73.0429 55.4997 75.4492 53.0895 75.4492 50.1442L75.4574 28.3907ZM11.2974 26.3985H8.89121C6.76621 26.3985 5.02791 28.1329 5.02791 30.2618V62.8088C5.02791 63.8674 5.4615 64.8322 6.16461 65.5354L6.16071 65.5393C6.85993 66.2385 7.82481 66.6721 8.88731 66.6721H72.3673L74.8556 73.1252L6.22661 73.1213C2.73831 73.1213 0.00390601 70.1291 0.00390601 66.6174L0 27.7654C0 24.2537 2.7344 21.2615 6.2227 21.2615H11.293V26.3982L11.2974 26.3985ZM93.5514 76.5465L93.5553 76.5543V76.5582C93.7858 76.7809 93.7897 77.1754 93.5397 77.4254V77.4176L90.4811 80.4332C90.2428 80.6715 89.8522 80.6715 89.6139 80.4254L83.4967 74.2145C82.9537 73.6637 82.024 73.9215 81.8287 74.652H81.8248L80.2467 80.4684C79.8951 80.441 79.7819 80.3512 79.6373 79.9801L71.7935 59.6521C71.5709 59.074 72.4732 58.1716 73.063 58.406L93.262 66.5622C93.4573 66.6442 93.6487 66.738 93.7034 66.9333H93.6995C93.7191 67.0153 93.7347 67.0974 93.7425 67.1794L87.9027 68.6677C87.18 68.8513 86.8519 69.781 87.4886 70.3786L93.5514 76.5465ZM67.7704 83.3082H18.9814C18.7236 83.3082 18.458 83.523 18.2353 83.8629C17.9306 84.3316 17.7431 84.9996 17.7431 85.7535V89.8004H69.0201L69.0162 85.7574C69.0162 85.0035 68.8248 84.3355 68.5201 83.8668C68.2975 83.523 68.0282 83.3082 67.7704 83.3082ZM52.0434 75.1168H34.7074L31.5824 81.316H55.1644L52.0434 75.1168ZM67.2114 3.3868C69.4262 3.3868 70.5434 6.0743 68.9731 7.6407C67.4067 9.2071 64.7153 8.08992 64.7153 5.879C64.7192 4.504 65.8325 3.3868 67.2114 3.3868ZM58.438 3.3868C60.6528 3.3868 61.7661 6.0782 60.1997 7.6407C58.6333 9.2071 55.9419 8.08992 55.9419 5.879C55.9458 4.504 57.063 3.3868 58.438 3.3868ZM49.6685 3.3868C51.8833 3.3868 52.9966 6.0743 51.4302 7.6407C49.8638 9.2071 47.1724 8.08992 47.1724 5.879C47.1763 4.504 48.2935 3.3868 49.6685 3.3868ZM38.5085 34.1568C37.9577 34.1568 37.5124 34.6021 37.5124 35.1529V44.6646H29.8757V31.2586C31.4773 30.9969 32.8952 29.9305 33.8288 28.5555C34.8952 30.2391 36.6647 31.3172 38.6296 31.3172C40.5085 31.3172 42.2429 30.1375 43.321 28.5555C44.3874 30.2391 46.1569 31.3172 48.1218 31.3172C50.0007 31.3172 51.7351 30.1375 52.8132 28.5555C53.739 30.0164 55.196 31.0321 56.8757 31.2664V44.6644H49.239V35.1527C49.239 34.6019 48.7937 34.1566 48.2429 34.1566L38.5085 34.1568ZM47.2429 36.149H39.5085V44.6646H47.2468L47.2429 36.149ZM58.8679 31.1451V44.6681H61.5437C62.0945 44.6681 62.5398 45.1134 62.5398 45.6642V49.2228C62.5398 49.7736 62.0945 50.2189 61.5437 50.2189H25.2037C24.6529 50.2189 24.2076 49.7736 24.2076 49.2228V45.6642C24.2076 45.1134 24.6529 44.6681 25.2037 44.6681H27.8795L27.8834 31.1681C25.5943 30.6134 24.0592 28.7853 23.442 26.4103C23.3639 26.1251 23.3834 25.8986 23.5162 25.633L27.231 17.6174C27.3756 17.2463 27.7388 16.9806 28.1607 16.9806H58.5557C58.9854 16.9806 59.3565 17.2541 59.4932 17.6408L63.2198 25.6135C63.3683 25.8987 63.3995 26.1448 63.298 26.4533C62.6183 28.6486 61.0359 30.5396 58.8679 31.1451ZM51.3757 27.1099H44.7819C46.235 29.9771 49.6374 30.1177 51.3757 27.1099ZM41.8835 27.1099H35.2897C36.7428 29.9771 40.1452 30.1177 41.8835 27.1099ZM51.5476 25.1138L50.1648 18.9732H44.3562L44.3679 25.1138H51.5476ZM52.2 18.9732L53.5828 25.1138H60.7937L57.9226 18.9732H52.2ZM42.3797 25.1138L42.3679 18.9732H36.5515L35.1335 25.1138H42.3797ZM28.7977 18.9732L25.9539 25.1138H33.0945L34.5125 18.9732H28.7977ZM25.7977 27.1099C27.2469 29.9771 30.6532 30.1177 32.3915 27.1099H25.7977ZM57.8717 46.6609H26.2037V48.2273H60.5477V46.6609H57.8717Z" fill="black"/>
</svg>
