<svg width="43" height="44" viewBox="0 0 43 44" fill="none" xmlns="http://www.w3.org/2000/svg">
<path d="M40.2843 40.8232C41.4578 39.4482 42.1042 37.6958 42.1042 35.8854C42.1042 31.99 39.1632 28.7703 35.3854 28.3253V25.5833C35.3854 25.0887 34.9844 24.6875 34.4896 24.6875H21.9479V22H23.2917C23.7864 22 24.1875 21.5989 24.1875 21.1042V19.6436C25.1146 19.2965 25.9843 18.7936 26.7514 18.1611L28.0182 18.8924C28.4466 19.1397 28.9945 18.993 29.2419 18.5645L31.4815 14.6854C31.6003 14.4797 31.6325 14.2352 31.571 14.0057C31.5094 13.7761 31.3594 13.5805 31.1536 13.4617L29.888 12.7311C30.0461 11.782 30.0565 10.7803 29.888 9.76892L31.1536 9.03828C31.3594 8.91949 31.5095 8.72384 31.571 8.49433C31.6325 8.2649 31.6003 8.02034 31.4815 7.81457L29.2419 3.93552C28.9945 3.50704 28.4467 3.36013 28.0182 3.60765L26.7514 4.33891C25.9848 3.70708 25.1151 3.20434 24.1875 2.85667V1.39583C24.1875 0.901154 23.7864 0.5 23.2917 0.5H18.8125C18.3177 0.5 17.9167 0.901154 17.9167 1.39583V2.85667C16.989 3.20443 16.1194 3.70708 15.3529 4.33891L14.0861 3.60765C13.6577 3.36031 13.1097 3.50704 12.8624 3.93552L10.6228 7.81457C10.504 8.02034 10.4718 8.26481 10.5333 8.49433C10.5948 8.72393 10.7449 8.91949 10.9507 9.03828L12.2163 9.76892C12.0582 10.718 12.0478 11.7197 12.2163 12.7311L10.9507 13.4617C10.7449 13.5805 10.5948 13.7762 10.5333 14.0057C10.4718 14.2351 10.504 14.4797 10.6228 14.6854L12.8624 18.5645C13.1096 18.9929 13.6575 19.1397 14.0861 18.8924L15.3529 18.1611C16.12 18.7935 16.9896 19.2965 17.9168 19.6436V21.1042C17.9168 21.5989 18.3178 22 18.8126 22H20.1563V24.6875H7.61458C7.11981 24.6875 6.71875 25.0887 6.71875 25.5833V28.3253C2.94093 28.7703 0 31.99 0 35.8854C0 37.6963 0.646702 39.4493 1.82033 40.8237C1.82096 40.8245 1.83377 40.8401 1.83449 40.8409C3.28287 42.5308 5.38969 43.5 7.61458 43.5C9.83948 43.5 11.9463 42.5308 13.3941 40.8416C13.3949 40.8408 13.4078 40.8249 13.4093 40.8232C14.5828 39.4482 15.2292 37.6958 15.2292 35.8854C15.2292 31.99 12.2882 28.7703 8.51042 28.3253V26.4792H33.5938V28.3253C29.8159 28.7703 26.875 31.99 26.875 35.8854C26.875 37.6963 27.5217 39.4493 28.6953 40.8237C28.696 40.8245 28.7088 40.8401 28.7095 40.8409C30.1579 42.5308 32.2647 43.5 34.4896 43.5C36.7145 43.5 38.8213 42.5308 40.2691 40.8416C40.2719 40.8384 40.2744 40.8351 40.2771 40.8318C40.2795 40.829 40.2819 40.8261 40.2843 40.8232ZM16.5729 11.25C16.5729 8.78019 18.5823 6.77083 21.0521 6.77083C23.5219 6.77083 25.5313 8.78019 25.5313 11.25C25.5313 13.7198 23.5219 15.7292 21.0521 15.7292C18.5823 15.7292 16.5729 13.7198 16.5729 11.25ZM3.8201 40.2996C6.05109 38.5948 9.17414 38.5917 11.4092 40.2996C10.3603 41.2025 9.01862 41.7083 7.61458 41.7083C6.21081 41.7083 4.86921 41.2025 3.8201 40.2996ZM13.4375 35.8854C13.4375 36.9685 13.134 38.0238 12.5725 38.9357C11.9045 38.412 11.1665 38.0005 10.3799 37.7139C10.8907 37.0944 11.1979 36.3012 11.1979 35.4375C11.1979 33.4617 9.59043 31.8542 7.61458 31.8542C5.63873 31.8542 4.03125 33.4617 4.03125 35.4375C4.03125 36.3012 4.33843 37.0944 4.84924 37.7139C4.0626 38.0005 3.32462 38.412 2.65659 38.9357C2.09526 38.0241 1.79167 36.9687 1.79167 35.8854C1.79167 32.6747 4.40383 30.0625 7.61458 30.0625C10.8253 30.0625 13.4375 32.6747 13.4375 35.8854ZM34.4896 30.0625C37.7003 30.0625 40.3125 32.6747 40.3125 35.8854C40.3125 36.9685 40.009 38.0238 39.4475 38.9357C38.7795 38.412 38.0416 38.0005 37.2549 37.7139C37.7657 37.0944 38.0729 36.3012 38.0729 35.4375C38.0729 33.4617 36.4654 31.8542 34.4896 31.8542C32.5137 31.8542 30.9063 33.4617 30.9063 35.4375C30.9063 36.3012 31.2134 37.0944 31.7242 37.7139C30.9376 38.0005 30.1996 38.412 29.5316 38.9357C28.9703 38.0241 28.6667 36.9687 28.6667 35.8854C28.6667 32.6747 31.2788 30.0625 34.4896 30.0625ZM30.6951 40.2996C32.9261 38.5948 36.0491 38.5917 38.2842 40.2996C37.2353 41.2025 35.8935 41.7083 34.4896 41.7083C33.0858 41.7083 31.7442 41.2025 30.6951 40.2996Z" fill="black"/>
</svg>
